<svg id="Layer_1" xmlns="http://www.w3.org/2000/svg" viewBox="0 0 338.56 87.66"><defs><style>.cls-1{fill:#fff;stroke-width:0}</style></defs><path class="cls-1" d="M33.28 81.85c-8.69-.29-18.47-2.2-25.44-10.91-4.27-5.34-4.8-12.27-1.55-17.22 2.89-4.39 9.13-5.72 12.46-2.6.92.87 2.24 1.82.06 3.05-4.33 2.45-4.52 6.54-3.61 10.75 1.89 8.76 8.62 13.78 19.31 14.64 12.02.97 21.71-5.41 24.06-15.84 1.36-6.07-.23-9.86-5.61-13.12-5.21-3.16-11.1-4.55-16.87-6.18-6.82-1.93-13.79-3.42-20.15-6.73-5.08-2.64-9.26-6.1-9.32-12.39-.06-6.42 3.1-11.32 8.54-14.45C26.93 4.1 39.22 4.88 51.62 8.89c1.17.38 2.31.84 3.44 1.32 5.92 2.56 5.97 3.17 1.31 7.82-1.23 1.23-1.8 1.21-2.72-.19-5.91-9.06-14.73-10.4-24.52-9.15-3.28.42-6.44 1.21-9.33 2.89-4.78 2.77-7.38 7-7.41 12.42-.02 5.07 3.76 7.67 7.79 9.63 7.42 3.61 15.57 5.02 23.39 7.41 4.57 1.4 9.06 2.94 13.39 5.02 14.16 6.83 10.72 21.44 2.57 28.25-6 5.02-14.16 7.5-26.28 7.52zM76.7 81.16c-.67 0-1.09-.7-.8-1.3 1.89-3.83 1.5-7.73 1.5-11.56.01-17.09.01-34.18 0-51.27 0-2.94.07-5.91-1.92-8.7-.37-.52-.06-1.24.58-1.29.86-.06 1.58-.11 2.29-.12 14.13-.02 28.26.16 42.39-.13 4.16-.09 4.86 7.22 4.89 8.69 0 .21-.24.33-.41.2-5.9-4.6-12.5-5.42-19.22-5.6-5.78-.15-11.57.06-17.36-.07-3.36-.07-5.04 1.22-5.01 4.69.06 6.19.05 12.38 0 18.57-.01 1.73.32 2.79 2.41 2.76 7.07-.09 14.15-.05 20.18-5.11.33-.28.83-.03.83.4v10.42c0 .44-.5.67-.85.41-5.83-4.42-12.44-4.92-19.24-4.8-3.19.06-4.08 1.04-2.84 7.2 1.56 7.73 1.7 15.69.16 23.42-1.48 7.45-.62 10.58 4.83 10.24 8.3-.52 16.65.56 24.96-.87 3.82-.66 6.87-1.27 10.36-4.16.29-.24.74-.06.76.31.11 2.17-.62 7.66-6.77 7.66H76.69zM197.31 80.63c-.83.24-.96.3-1.09.31-2.72 0-5.6.59-8.11-.13-3.4-.97-.84-4.44-1.85-6.7-2.89-6.43-5.36-13.04-7.91-19.62-.65-1.68-1.71-2.16-3.41-2.15-9.1.06-18.2.06-27.3.02-1.71 0-2.82.54-3.45 2.17-2.61 6.69-5.27 13.37-7.89 20.05-.2.5-.31 1.04-.41 1.57q-.92 5.05-6.77 4.57c6.72-8.73 9.23-19.37 13.35-29.25 5.8-13.88 11.16-27.95 16.75-41.92.67-1.66.94-3.58 3.63-3.64 2.84-.06 3.33 1.86 4.07 3.71 7.87 19.77 15.75 39.55 23.56 59.35 1.64 4.15 3.13 8.34 6.86 11.66zm-35.74-67.56c-1.49.97-1.7 2.22-2.13 3.3-4.11 10.33-8.07 20.73-12.35 30.99-1.39 3.33-.12 3.56 2.65 3.53 7.88-.1 15.77-.14 23.64.03 2.85.06 3.25-.74 2.23-3.23-3.56-8.66-6.98-17.37-10.47-26.05-1.14-2.83-2.35-5.62-3.58-8.56zM216.41 10.55c-.07.11-.14.2-.22.26-.08.06-.18.09-.3.09-.13 0-.28-.06-.45-.2-.17-.13-.39-.27-.66-.43-.26-.16-.58-.3-.96-.43-.37-.13-.82-.2-1.35-.2-.5 0-.94.07-1.32.2-.38.13-.7.32-.96.55s-.45.5-.58.81c-.13.31-.2.65-.2 1.01 0 .46.11.84.34 1.14.23.3.53.56.9.78.37.21.79.4 1.26.56.47.16.96.32 1.45.49.49.17.98.36 1.45.57.47.21.89.48 1.26.8.37.32.67.72.9 1.18.23.47.34 1.04.34 1.73 0 .72-.12 1.4-.37 2.03-.25.63-.6 1.18-1.08 1.65-.47.47-1.05.84-1.74 1.1-.69.27-1.47.4-2.34.4-1.07 0-2.04-.19-2.92-.58-.88-.39-1.63-.91-2.25-1.57l.64-1.06c.06-.08.14-.16.22-.21.09-.06.19-.09.29-.09.16 0 .34.09.55.26.21.17.47.36.78.57s.69.4 1.13.57c.44.17.98.26 1.62.26.53 0 1-.07 1.42-.22.41-.15.76-.35 1.05-.62.29-.26.51-.58.66-.95.15-.37.23-.78.23-1.23 0-.5-.11-.91-.34-1.22-.23-.32-.52-.58-.89-.8-.37-.21-.79-.4-1.26-.55-.47-.15-.95-.3-1.45-.46-.5-.16-.98-.34-1.45-.55s-.89-.48-1.26-.81c-.37-.33-.67-.74-.89-1.24-.23-.49-.34-1.11-.34-1.83a4.427 4.427 0 0 1 1.32-3.14c.43-.42.96-.76 1.59-1.01.63-.25 1.36-.38 2.18-.38.92 0 1.76.15 2.52.44.76.29 1.42.71 1.99 1.27l-.54 1.06zM227.48 22.69c.68 0 1.29-.12 1.83-.35.54-.23.99-.55 1.36-.97s.66-.91.85-1.48c.2-.58.29-1.21.29-1.9V7.98h2.22V18c0 .95-.15 1.83-.45 2.65s-.74 1.52-1.3 2.11c-.56.59-1.25 1.06-2.06 1.4-.81.34-1.73.51-2.74.51s-1.92-.17-2.74-.51-1.5-.8-2.07-1.4-1-1.3-1.31-2.11-.45-1.69-.45-2.65V7.98h2.22v10c0 .69.1 1.32.29 1.9.2.58.48 1.07.85 1.48.37.41.83.74 1.37.97.54.23 1.15.35 1.83.35zM241.24 18.29v6.16h-2.22V7.98h4.87c1.04 0 1.95.12 2.72.36.77.24 1.41.58 1.91 1.03s.88.98 1.13 1.61c.25.63.37 1.33.37 2.1s-.13 1.47-.4 2.1c-.27.64-.66 1.18-1.18 1.64s-1.16.82-1.93 1.08-1.64.39-2.63.39h-2.65zm0-1.77h2.65c.64 0 1.2-.08 1.68-.25.49-.17.89-.4 1.22-.71.33-.3.58-.67.75-1.09.17-.42.25-.89.25-1.39 0-1.05-.32-1.87-.97-2.46-.65-.59-1.63-.89-2.94-.89h-2.65v6.79zM256.21 18.29v6.16h-2.22V7.98h4.87c1.04 0 1.95.12 2.72.36.77.24 1.41.58 1.91 1.03s.88.98 1.13 1.61c.25.63.37 1.33.37 2.1s-.13 1.47-.4 2.1c-.27.64-.66 1.18-1.18 1.64s-1.16.82-1.93 1.08-1.64.39-2.63.39h-2.65zm0-1.77h2.65c.64 0 1.2-.08 1.68-.25.49-.17.89-.4 1.22-.71.33-.3.58-.67.75-1.09.17-.42.25-.89.25-1.39 0-1.05-.32-1.87-.97-2.46-.65-.59-1.63-.89-2.94-.89h-2.65v6.79zM284.04 16.22c0 1.23-.2 2.37-.59 3.4-.39 1.03-.94 1.92-1.66 2.66s-1.57 1.32-2.57 1.73c-1 .41-2.11.62-3.32.62s-2.32-.21-3.31-.62c-1-.41-1.85-.99-2.56-1.73s-1.26-1.63-1.66-2.66c-.39-1.03-.59-2.16-.59-3.4s.2-2.37.59-3.4c.39-1.03.94-1.92 1.66-2.67s1.57-1.33 2.56-1.74c1-.41 2.1-.62 3.31-.62s2.32.21 3.32.62c1 .41 1.86.99 2.57 1.74s1.26 1.64 1.66 2.67c.39 1.03.59 2.16.59 3.4zm-2.29 0c0-1.01-.14-1.92-.41-2.73-.28-.81-.67-1.49-1.17-2.04-.51-.56-1.12-.98-1.84-1.28-.72-.3-1.53-.45-2.42-.45s-1.68.15-2.4.45c-.72.3-1.34.73-1.85 1.28-.51.56-.9 1.24-1.18 2.04-.28.81-.41 1.71-.41 2.73s.14 1.92.41 2.72c.28.8.67 1.48 1.18 2.04.51.56 1.12.98 1.85 1.28s1.52.44 2.4.44 1.69-.15 2.42-.44 1.33-.72 1.84-1.28.9-1.23 1.17-2.04c.28-.8.41-1.71.41-2.72zM290.46 17.58v6.88h-2.22V7.98h4.66c1.04 0 1.94.11 2.7.32.76.21 1.39.52 1.88.91.49.4.86.88 1.1 1.44.24.56.36 1.19.36 1.89 0 .58-.09 1.13-.28 1.63-.18.51-.45.96-.8 1.36-.35.4-.77.75-1.28 1.03-.5.28-1.07.5-1.71.64.28.16.52.4.74.7l4.81 6.54h-1.98c-.41 0-.71-.16-.9-.47l-4.28-5.89c-.13-.18-.27-.32-.43-.4s-.38-.12-.69-.12h-1.69zm0-1.62h2.33c.65 0 1.22-.08 1.72-.24.49-.16.91-.38 1.24-.67.33-.29.58-.63.75-1.03.17-.4.25-.84.25-1.32 0-.98-.32-1.72-.97-2.22-.65-.5-1.61-.75-2.89-.75h-2.44v6.22zM314.36 7.98v1.87h-5.32v14.6h-2.23V9.85h-5.35V7.98h12.9zM218.12 35.58v1.82h-7.91v5.47h6.41v1.75h-6.41v5.62h7.91v1.82h-10.15V35.58h10.15zM223.84 35.65c.1.05.21.15.33.3l9.54 12.42c-.02-.2-.04-.39-.05-.58s-.01-.37-.01-.55V35.57h1.95v16.48h-1.13c-.18 0-.32-.03-.44-.09s-.24-.17-.35-.31l-9.53-12.41c.01.19.03.38.03.56s.01.35.01.51v11.74h-1.96V35.57h1.15c.2 0 .35.02.44.07zM243.01 45.18v6.88h-2.22V35.58h4.66c1.04 0 1.94.11 2.7.32s1.39.52 1.88.91c.5.4.86.88 1.1 1.44.24.56.36 1.19.36 1.89 0 .58-.09 1.13-.28 1.63-.18.51-.45.96-.8 1.36-.35.4-.77.75-1.28 1.03-.5.28-1.07.5-1.71.64.28.16.52.4.74.7l4.81 6.54h-1.98c-.41 0-.71-.16-.9-.47l-4.28-5.89c-.13-.18-.27-.32-.42-.4s-.38-.12-.69-.12h-1.69zm0-1.62h2.33c.65 0 1.22-.08 1.72-.24.49-.16.91-.38 1.24-.67.33-.29.58-.63.75-1.03.17-.4.25-.84.25-1.32 0-.98-.32-1.72-.97-2.22-.65-.5-1.61-.75-2.89-.75H243v6.22zM258.93 52.06h-2.23V35.58h2.23v16.48zM275.89 48.65c.12 0 .23.05.33.15l.87.95c-.67.78-1.49 1.39-2.46 1.83s-2.12.66-3.48.66c-1.19 0-2.27-.21-3.23-.62s-1.79-.99-2.47-1.73-1.21-1.63-1.59-2.66c-.38-1.04-.56-2.17-.56-3.42s.2-2.38.6-3.42.97-1.92 1.7-2.67 1.6-1.32 2.62-1.73 2.14-.62 3.36-.62 2.26.19 3.13.56c.88.38 1.66.89 2.34 1.53l-.72 1.02c-.05.08-.11.14-.18.19-.07.05-.17.07-.3.07-.1 0-.21-.04-.32-.11s-.24-.16-.4-.27c-.15-.11-.33-.22-.54-.34s-.45-.24-.74-.35a5.4 5.4 0 0 0-.99-.27c-.38-.07-.81-.11-1.3-.11-.88 0-1.69.15-2.42.45-.73.3-1.36.73-1.89 1.29s-.94 1.24-1.24 2.05-.44 1.71-.44 2.7.15 1.94.44 2.75c.29.8.7 1.49 1.21 2.04.51.56 1.11.98 1.81 1.27.7.29 1.45.44 2.25.44.49 0 .93-.03 1.32-.09s.75-.15 1.09-.27c.33-.12.64-.28.93-.47.29-.19.58-.41.87-.67.13-.12.26-.17.38-.17zM294.31 52.06h-2.24v-7.5h-8.88v7.5h-2.24V35.58h2.24v7.35h8.88v-7.35h2.24v16.48zM221.53 79.66h-1.72c-.2 0-.36-.05-.48-.15-.12-.1-.21-.23-.28-.38l-1.54-3.98h-7.39l-1.54 3.98a.89.89 0 0 1-.28.37c-.13.11-.29.16-.48.16h-1.72l6.59-16.48h2.27l6.59 16.48zm-10.8-6.12h6.15l-2.59-6.7c-.17-.41-.33-.93-.49-1.55-.08.31-.17.6-.25.87-.08.26-.16.5-.24.7l-2.59 6.69zM238.81 71.42c0 1.23-.2 2.36-.59 3.37-.39 1.01-.94 1.88-1.66 2.6-.71.72-1.57 1.28-2.56 1.67-1 .4-2.1.59-3.31.59h-6.16V63.17h6.16c1.21 0 2.32.2 3.31.59 1 .4 1.85.95 2.56 1.68.71.72 1.26 1.59 1.66 2.6.39 1.01.59 2.14.59 3.37zm-2.29 0c0-1.01-.14-1.92-.41-2.71-.28-.8-.67-1.47-1.17-2.02-.51-.55-1.12-.97-1.84-1.26s-1.52-.44-2.4-.44h-3.92v12.87h3.92c.88 0 1.68-.15 2.4-.44.72-.29 1.33-.71 1.84-1.26s.9-1.22 1.17-2.02c.28-.8.41-1.7.41-2.71zM240.26 63.18h1.78c.2 0 .36.05.48.15.12.1.21.23.28.38l4.66 11.63c.11.26.21.54.29.85s.17.62.26.95c.07-.33.14-.65.22-.95.08-.31.17-.59.28-.85l4.63-11.63a.93.93 0 0 1 .28-.36c.13-.11.29-.17.48-.17h1.79l-6.72 16.48h-2.01l-6.72-16.48zM273.44 71.42c0 1.23-.2 2.37-.59 3.4-.39 1.03-.94 1.92-1.66 2.66s-1.57 1.32-2.57 1.73c-1 .41-2.11.62-3.32.62s-2.32-.21-3.31-.62c-1-.41-1.85-.99-2.57-1.73-.71-.74-1.26-1.63-1.66-2.66-.39-1.03-.59-2.16-.59-3.4s.2-2.37.59-3.4c.39-1.03.94-1.92 1.66-2.67.71-.75 1.57-1.33 2.57-1.74 1-.41 2.1-.62 3.31-.62s2.32.21 3.32.62c1 .41 1.86.99 2.57 1.74s1.27 1.64 1.66 2.67c.39 1.03.59 2.16.59 3.4zm-2.29 0c0-1.01-.14-1.92-.41-2.73-.28-.81-.67-1.49-1.17-2.04-.51-.56-1.12-.98-1.84-1.28-.72-.3-1.53-.45-2.42-.45s-1.68.15-2.4.45c-.72.3-1.34.73-1.85 1.28-.51.56-.9 1.24-1.18 2.04-.28.81-.41 1.71-.41 2.73s.14 1.92.41 2.72c.28.8.67 1.48 1.18 2.04.51.56 1.12.98 1.85 1.28s1.52.44 2.4.44 1.69-.15 2.42-.44 1.33-.72 1.84-1.28.9-1.23 1.17-2.04c.28-.8.41-1.71.41-2.72zM289.02 76.25c.12 0 .23.05.33.15l.87.95c-.67.78-1.49 1.39-2.46 1.83s-2.12.66-3.48.66c-1.19 0-2.27-.21-3.23-.62s-1.79-.99-2.47-1.73-1.21-1.63-1.59-2.66c-.38-1.04-.56-2.17-.56-3.42s.2-2.38.6-3.42.97-1.92 1.7-2.67 1.6-1.32 2.62-1.73 2.14-.62 3.36-.62 2.26.19 3.13.56c.88.38 1.66.89 2.34 1.53l-.72 1.02c-.05.08-.11.14-.18.19-.07.05-.17.07-.3.07-.1 0-.21-.04-.32-.11s-.24-.16-.4-.27c-.15-.11-.33-.22-.54-.34s-.45-.24-.74-.35a5.4 5.4 0 0 0-.99-.27c-.38-.07-.81-.11-1.3-.11-.88 0-1.69.15-2.42.45-.73.3-1.36.73-1.89 1.29s-.94 1.24-1.24 2.05-.44 1.71-.44 2.7.15 1.94.44 2.75c.29.8.7 1.49 1.21 2.04.51.56 1.11.98 1.81 1.27.7.29 1.45.44 2.25.44.49 0 .93-.03 1.32-.09s.75-.15 1.09-.27c.33-.12.64-.28.93-.47.29-.19.58-.41.87-.67.13-.12.26-.17.38-.17zM307.64 79.66h-1.72c-.2 0-.36-.05-.48-.15-.12-.1-.21-.23-.28-.38l-1.54-3.98h-7.39l-1.54 3.98a.89.89 0 0 1-.28.37c-.13.11-.29.16-.48.16h-1.72l6.59-16.48h2.27l6.59 16.48zm-10.8-6.12h6.15l-2.59-6.7c-.17-.41-.33-.93-.49-1.55-.08.31-.17.6-.25.87-.08.26-.16.5-.24.7l-2.59 6.69zM320.34 63.18v1.87h-5.32v14.6h-2.23v-14.6h-5.35v-1.87h12.9zM333.76 63.18V65h-7.91v5.47h6.41v1.75h-6.41v5.62h7.91v1.82h-10.15V63.18h10.15z"/></svg>